<?xml version="1.0" encoding="UTF-8"?><svg id="Layer_1" xmlns="http://www.w3.org/2000/svg" viewBox="0 0 50 50"><path d="M24.17,2.27c7.95-.39,15.68,4.92,18.08,12.51,4.13,13.08-7.67,25.65-17.14,32.97C14.38,40.08,1.2,24.66,9.53,10.96c3.11-5.11,8.61-8.39,14.64-8.69ZM23.37,6.77c-18.45,2.09-14.19,30.77,4.31,27.11,16.97-3.36,13.07-29.08-4.31-27.11Z" fill="#fff"/><path d="M28.52,28.37c-.72-.71-.11-5.72-.39-7.18-.17-.86-2.04-1.74-2.3-3.78-.87-6.89,8.53-6.93,7.38.27-.25,1.57-1.84,2.56-2.05,3.25-.45,1.53.83,7.49-1.26,7.77-.36.05-1.13-.08-1.38-.34Z" fill="#fff"/><path d="M18.13,16.77h1.59v-4.11l1.33-.4v4.11c0,.54,1.86.54,1.86,0v-4.11l1.29.44c-.19,1.73.61,6.46-.49,7.66-.57.62-1.37.45-1.83,1.09-.56,1.65,1.32,8.16-1.97,7.21-1.9-.55-.51-7.17-1-7.63-.09-.09-2.11-.35-2.11-1.2v-7.55l1.33.4v4.11Z" fill="#fff"/></svg>