<?xml version="1.0" encoding="UTF-8"?><svg id="Layer_1" xmlns="http://www.w3.org/2000/svg" viewBox="0 0 50 50"><path d="M26.49,15.4c-4.07,0-7.36,3.3-7.36,7.36s3.29,7.36,7.36,7.36,7.36-3.3,7.36-7.36-3.3-7.36-7.36-7.36ZM24.43,26.41c-.12-.06-1.48-1.41-1.54-1.54-.32-.62.08-1.32.81-1.16.38.09.87.95,1.12.82l4.05-5.2c.11-.13.25-.25.42-.29.75-.17,1.21.47.85,1.12-1.62,1.75-3.01,4.35-4.66,6-.33.33-.59.49-1.05.25Z" fill="#fff"/><path d="M40.68,25.94c.32-.37.74-.59,1.04-.99,1.1-1.46.53-3.33-1.04-4.12.21-.3.57-.46.8-.7,1.37-1.46.93-3.52-.8-4.41.72-.66,1.48-1.24,1.58-2.29.22-2.17-1.7-3.48-3.7-2.77v-4.54c0-1.52-1.32-3.2-2.82-3.53-5.94-.3-11.96-.06-17.92-.12-1.31-.03-3.31,1.75-3.31,3.03v10.09c-.44-.07-.82-.32-1.28-.35-1.2-.1-2.18.68-2.49,1.82-.16,2.65.17,5.36-.11,8-.25,2.3-1.27,4.46-1.41,6.78-.26,4.12,1.79,7.36-.07,11.56-.29.66-1.37,2.07-1.43,2.54-.09.82.35,1.31,1.06,1.63h14.36c1.6-.42,2.44-2,3.68-2.97,2.63-.19,5.48.19,8.09-.02,2.23-.17,3.52-1.76,3.66-3.92.16-2.49-.14-5.15,0-7.66l3.07-2.84c1.18-1.49.66-3.36-.96-4.22ZM22.92,46.08h-13.61c1.77-2.34,2.28-4.89,2.11-7.8-.12-2.15-.85-4.16-.7-6.35.11-1.58.68-3.02,1.02-4.54.73-3.31.42-6.62.49-10,.61-1.5,2.41-.18,2.28,1.05v22.99c.12,1.43,1.9,3.14,3.31,3.14h6.83c-.29.33-1.32,1.5-1.72,1.5ZM34.91,43.08h-16.65c-1.15-.06-2.2-.85-2.25-2.07V5.93c.35-2.37,2.69-1.98,4.5-1.98-.19,1.48.46,2.86,2.07,3,2.56-.15,5.32.19,7.85,0,.65-.05,1.33-.4,1.7-.94.06-.1.36-.72.36-.78v-1.28c2.18-.03,4.35-.36,4.58,2.43v34.1c-.09,1.44-.68,2.36-2.16,2.6ZM38.57,12.54c0-.07.58-.5.7-.53.91-.27,1.7.47,1.48,1.39-.11.5-1.76,1.75-2.18,2.18v-3.04ZM38.57,17.65c0-.07.58-.49.7-.53.92-.28,1.74.52,1.45,1.45-.18.57-1.68,1.65-2.15,2.13v-3.04ZM38.57,22.76s.55-.45.65-.49c.94-.35,1.79.46,1.49,1.4-.18.57-1.68,1.65-2.15,2.13v-3.04ZM38.57,30.92v-3.04s.61-.5.7-.53c.73-.23,1.51.28,1.51,1.06,0,.89-1.6,1.91-2.21,2.51Z" fill="#fff"/><path d="M25.42,14.55c-4.55.46-7.77,4.99-7.11,9.44,1.13,7.62,11.38,9.65,15.3,2.99,3.55-6.03-1.31-13.13-8.2-12.43ZM29.48,28.84c-5.42,2.61-11.29-2.55-9.4-8.25.77-2.32,3.05-4.28,5.51-4.54,7.86-.8,10.56,9.58,3.88,12.79Z" fill="#fff"/><path d="M31.58,40.28c.49.54.06,1.22-.63,1.29-2.76.31-6.08-.24-8.9,0-.99-.12-1.1-1.24-.18-1.5,2.95.22,6.28-.28,9.18,0,.19.02.4.06.54.21Z" fill="#fff"/></svg>