<?xml version="1.0" encoding="UTF-8"?><svg id="Layer_1" xmlns="http://www.w3.org/2000/svg" viewBox="0 0 50 50"><path d="M26.17,44.95h-2.34c-8.93-.47-15.39-6.16-13.77-15.6.49-2.85,1.73-5.11,3.48-7.35,1.37-1.75,2.88-3.41,4.28-5.14h14.33c3.43,4.3,7.35,7.8,7.95,13.63.92,8.95-5.63,14.02-13.94,14.45ZM25.83,21.92c-.29-.29-.75-.4-1.14-.3-1.22.32-.76,1.88-.87,2.79-.64.4-1.2.68-1.66,1.3-1.57,2.14-.28,5.02,2.26,5.52.18.04.39-.01.6.03,1.93.35,1.17,2.8-.47,2.26-.88-.29-.57-1.14-.89-1.68-.51-.87-1.95-.66-2.15.32-.28,1.38.95,3.21,2.31,3.54-.03.87-.11,2.15,1.06,2.25,1.31.12,1.37-1.31,1.3-2.25,3.06-1.02,3.04-5.47.01-6.54-.7-.25-1.65-.08-2.12-.68-.76-.96.33-2.31,1.48-1.72.78.4.46.96.73,1.53.42.89,1.82.84,2.14-.13.34-1.02-.45-2.48-1.24-3.11-.33-.26-.69-.37-1-.63-.11-.75.24-1.9-.35-2.49Z" fill="#fff"/><path d="M32.84,5.4c.23.23.37.68.32,1.01-.08.55-.81,1.81-1.05,2.45-.68,1.78-1.05,3.65-1.19,5.55h-11.84c-.14-1.91-.51-3.77-1.19-5.55-.25-.65-.98-1.9-1.05-2.45-.09-.62.36-1.23.98-1.33.36-.05.66.1.98.23,1.2.49,2.38,1.3,3.6,1.78.33,0,1.62-1.9,2.42-2.02,1.09-.17,1.96,1.54,2.8,2.02,1.22-.48,2.39-1.29,3.6-1.78.57-.23,1.13-.41,1.64.09Z" fill="#fff"/><path d="M12.15,7.4c.98-.11,2.54-.02,2.33,1.36-.17,1.14-1.47,1-2.33.98.15,1.02-.05,2.67-1.48,2.3-1.05-.27-.85-1.46-.85-2.3-1.02.15-2.67-.05-2.3-1.48.27-1.05,1.46-.85,2.3-.85-.15-1.02.05-2.67,1.48-2.3,1.05.27.85,1.46.85,2.3Z" fill="#fff"/><path d="M40.19,14.49c.98-.11,2.54-.02,2.33,1.36-.17,1.14-1.47,1-2.33.98.15,1.02-.05,2.67-1.48,2.3-1.05-.27-.85-1.46-.85-2.3-1.02.15-2.67-.05-2.3-1.48.27-1.05,1.46-.85,2.3-.85-.15-1.02.05-2.67,1.48-2.3,1.05.27.85,1.46.85,2.3Z" fill="#fff"/><path d="M10.72,16.85c1.55-.32,1.97,2,.51,2.3-1.56.32-1.97-2-.51-2.3Z" fill="#fff"/></svg>